<svg id="a5657138-9ca5-4e40-a7b0-a5c5f4032aba" data-name="b210fc08-a91a-44a2-8dcb-ec8b2ce9b6a9" xmlns="http://www.w3.org/2000/svg" viewBox="0 0 143.04 189.6">
  <defs>
    <style>
      .ebf85af2-bb55-44a0-8306-45226a244a46 {
        fill: #fefefe;
      }

      .beaf955c-98c5-4cf6-a174-c421bd1814b9 {
        fill: #646464;
      }

      .beb9ca7c-d2e0-4a37-86e0-36089ba48299 {
        fill: #e8e8e7;
      }

      .a956e383-bd87-417b-85c2-5814b215a043 {
        fill: #cfcfce;
      }

      .b41b7eba-7a2d-4b54-8578-e37d898a22b3 {
        fill: #fafafa;
      }

      .f92d2403-a899-4e8a-ae04-2ce15a7d5175 {
        fill: #f9f9f9;
      }

      .b843f352-6f6d-46f2-8388-4afca842d19e {
        fill: #f7f7f7;
      }

      .a2e917bc-edf9-4ad2-9291-f4a5ceb2e500 {
        fill: #efefee;
      }

      .bd2e7a24-3799-4972-85f6-16d312618268 {
        fill: #f6f6f6;
      }

      .f37b66b2-744f-497e-b984-2eb576d22964 {
        fill: #bebebd;
      }

      .ed6fe28d-c99a-492c-bb16-162f3174904b {
        fill: #ebebeb;
      }

      .b29dff04-74b9-4cd7-9a51-c6a33688a15a {
        fill: #d1d1d0;
      }

      .e14f1b81-605f-4142-936c-765b26a12a52 {
        fill: #afafae;
      }

      .a307a1bb-a961-466e-916d-97e33198a065 {
        fill: #c5c5c4;
      }

      .f33fff22-9378-4618-8071-96be318f2cfb {
        fill: #e3e3e3;
      }

      .b79aff0d-21ac-4830-a66a-20fbe0b2f47e {
        fill: #e9e9e9;
      }

      .bb84b503-9ecb-411c-841c-c9ed6c18f829 {
        fill: #d9dad9;
      }

      .bc73ca3a-1f99-41f2-987d-5a03fabcba6e {
        fill: #d3d4d3;
      }

      .b44df728-6a30-4997-8f76-feb6a4c94fac {
        fill: #d9d9d9;
      }

      .e6dd839c-f6f9-4843-8624-875f269b3f5d {
        fill: #d7d7d7;
      }

      .b517b07d-f3ff-4909-a5e4-d7b7198ef2d1 {
        fill: #c9c8c8;
      }

      .b4c3bfa2-b212-4edb-bddf-52d4fe1a4113 {
        fill: #5e5e5e;
      }

      .b2ea9b01-3644-40a6-b7a2-e4929ccbfaea {
        fill: #dedfde;
      }

      .a6a59ba0-b12e-4f6f-b675-43b1da3188b6 {
        fill: #e5e4e4;
      }

      .bfdd799e-789f-46f3-b8c3-ffcd84359692 {
        fill: #cbcbca;
      }

      .a8f5d228-4823-4ff7-8e6c-9fb4c0b922b1 {
        fill: #8c8d8d;
      }

      .bf660337-7b24-4e48-8616-66c468bcf956 {
        fill: #6a6a6a;
      }

      .f6805c0c-c9d3-44a8-984e-1c85f63302d8 {
        fill: #e6e6e5;
      }

      .f1fa3c1b-9907-4f8f-92e4-8806cd360e9d {
        fill: #dadada;
      }

      .ae533cce-17d0-4397-af55-2cf75ddcc0c5 {
        fill: #b9b8b8;
      }

      .b9cda1bb-4958-430b-b1d1-1a0b9bc16e5e {
        fill: #767777;
      }

      .b77ad44a-d39f-4ef8-81bf-54d04515c647 {
        fill: #c9c9c8;
      }

      .bef3dc23-c14e-4052-92ae-a2e7df3f06ca {
        fill: #9b9c9c;
      }

      .b5393fa3-d340-42f0-b524-5f86605cb269 {
        fill: #909191;
      }

      .be7e86cd-2c7e-4e7c-afdd-b41f62c1cdb3 {
        fill: #aeaeae;
      }

      .a4be4b6f-bc5e-4630-a0b3-55a3a70a9162 {
        fill: #787879;
      }

      .f696e07a-1128-41dd-aec4-033a4b3070a3 {
        fill: #7c7c7c;
      }

      .b3d5e8da-9a95-4f9c-bb98-375fd2bf734f {
        fill: #d1d1d1;
      }

      .a99e5388-48a8-4568-b84f-0a51d04df21d {
        fill: #e7e6e6;
      }

      .a366685e-86d1-4b5a-86a2-939b2c1a12f2 {
        fill: #a8a8a8;
      }

      .a51fea8a-b975-4e15-aeb3-f79a84464881 {
        fill: #868686;
      }

      .f2ab4b7b-1fdf-43f4-98f1-45a4fb7a0a36 {
        fill: #848484;
      }

      .a3a363e9-2968-4888-a763-11f82fe78e5e {
        fill: #7a7a7a;
      }

      .af7433fa-12d5-491b-9e2f-4b6b86a73243 {
        fill: #767676;
      }

      .a94ad002-c163-4b9a-afc6-4356b4b3d011 {
        fill: #9b9c9b;
      }

      .e9a30c00-0643-4661-8072-12bfb7ae5cdc {
        fill: #707170;
      }

      .acaa188f-f105-4e42-a438-509622dfa7d9 {
        fill: #bfbfbf;
      }

      .f2a380a8-88fe-4a24-bfe5-c48717ecc5bc {
        fill: #6e6e6e;
      }

      .a10931a7-ade7-4e23-aae2-b64beb25e7c2 {
        fill: #5e5d5d;
      }

      .a956d422-340b-41d0-a829-3ba0276c8bfc {
        fill: #dadad9;
      }

      .b5252c56-d7c7-4e76-8f54-b9b66fb3c315 {
        fill: #747474;
      }

      .a39b3fed-1802-43e6-903e-d8467708dfe1 {
        fill: #e1e1e0;
      }

      .abed88fb-1804-444d-90a8-835c09504857 {
        fill: #747575;
      }

      .a17a5992-e606-4413-bac6-fecf19e1afe6 {
        fill: #8d8e8e;
      }

      .f40d2ba0-1fa1-47db-8af7-45a42aa35056 {
        fill: #bbb;
      }

      .e557a168-78c1-41ec-8d56-ebedc38f6767 {
        fill: #7e7e7e;
      }

      .e7808f4e-71d6-473c-940e-6448763ceb43 {
        fill: #b7b6b6;
      }

      .a4d7d941-9f69-4078-8ce9-2565c30788dc {
        fill: #6c6c6c;
      }

      .acd60f05-8c6e-4d97-ba3d-d6e42ab10298 {
        fill: #c1c1c0;
      }

      .b25e5d7a-a5d4-4408-956f-9f5164a93338 {
        fill: #ededed;
      }

      .a0afc4af-3796-47cf-8aff-9d2ba0b0e3e0 {
        fill: #929393;
      }

      .e2113909-dc80-4342-8d02-ec08e3b0e3e5 {
        fill: #c7c6c6;
      }

      .b3e7cb67-75f5-4c12-af58-940fa58a7adf {
        fill: #626262;
      }

      .f90f3708-f6c5-426a-9d9e-58e232586d07 {
        fill: #b1b1b0;
      }

      .af65e101-2a70-49e0-b6af-f64d2342fc42 {
        fill: #757575;
      }

      .b99d3c59-fcf7-4ef5-95d3-5a7fbe8a527b {
        fill: #797979;
      }

      .b95bebc7-8e37-46a1-85f1-f612027d9206 {
        fill: #9a9b9b;
      }

      .ba2d41be-179d-4932-b55b-206abae6597d {
        fill: #595959;
      }

      .aa1ed879-6590-4fbc-a0a9-890d04fe508d {
        fill: #e2e2e2;
      }

      .b9d63075-05f1-4471-8f94-bd5b6a896fbd {
        fill: #aeafae;
      }

      .ba1485f4-8f3e-453f-afb3-d9688f9f2ab3 {
        fill: #8f8f8f;
      }

      .bf099656-d586-494d-893f-8894f2fb5059 {
        fill: #c6c5c5;
      }

      .aee85ed9-86be-4a8e-b271-bd26137a9b60 {
        fill: #b2b3b2;
      }

      .f1c9d570-1fe4-453c-9203-9104422f7406 {
        fill: #b6b7b6;
      }

      .f6e0c29b-cb37-4a63-aef7-156f247f8f07 {
        fill: #838383;
      }

      .ac1a0a12-a3a9-467f-a4d9-dab238ff61fb {
        fill: #717171;
      }

      .ed10937d-1b9c-4895-be90-612886c260f6 {
        fill: #717271;
      }

      .b5ce7a7f-2c7a-4c54-a668-526f79613cfd {
        fill: #3e3e3e;
      }

      .b86e789f-32f5-465e-96a6-704d6074802c {
        fill: #3a3a3a;
      }

      .af5f5c89-b147-414e-a7fe-57290ec81c4e {
        fill: #e7e7e7;
      }

      .e3132057-5d57-45ca-b449-bac17b50def5 {
        fill: #f1f2f1;
      }

      .abfe38f9-217c-4d90-b428-cc9faa575989 {
        fill: #eaeaea;
      }

      .be81ad3d-0bc5-4dc3-9a4a-f68ee1c1937a {
        fill: #dadbda;
      }

      .aad7bf84-e4b4-4c7f-bf1f-377543bdd64c {
        fill: #d6d6d6;
      }

      .a6f9eb3e-10eb-454e-b83a-600a3af6a988 {
        fill: #828282;
      }

      .bbc7707c-41fe-4542-a083-610aa51ecb9e {
        fill: #eaeae9;
      }

      .ea106deb-20f8-4bb7-a016-d25f02526374 {
        fill: #e8e8e8;
      }

      .b41d5024-0337-4d04-afd0-74865dddd75e {
        fill: #c3c3c3;
      }

      .ae7cec25-575e-4f4b-80cc-7fa2a43cf1f6 {
        fill: none;
      }
    </style>
  </defs>
  <path class="ebf85af2-bb55-44a0-8306-45226a244a46" d="M93.55,128.64a3.1,3.1,0,0,0-1.64.61c-2.33,1.09-4.6,2.33-7,3.27-1.44.56-2.12,1.77-3.14,2.69-.2.18-.34.62-.71.4s-.07-.61.05-1a7.5,7.5,0,0,0-2.14,1,230.54,230.54,0,0,0-44.14,29.91,1.29,1.29,0,0,0-.56,1c-.13,2.1-.49,4.19-.47,6.31,0,.57.26,1.17-.18,1.69-.48,1-.27,2-.49,3-.13.6-.15,1.08-.89,1.15-.46.05-.28.81-.83.81a.33.33,0,0,1-.47.07c-.52-.06-.29.93-.94.68a3.44,3.44,0,0,1-2.41,1.47h-.4c-.75-.5-1.21-.14-1.56.53a.52.52,0,0,1-.72-.26,1.69,1.69,0,0,1-.08-.5c-.32-.57-.72-.75-1.28-.28a.61.61,0,0,1-.54.35c-.9.06-.36-.78-.68-1.09h0a.29.29,0,0,0-.49,0,7.22,7.22,0,0,1-2-3.26l-6.4,5.18c-1.26,2.5-3.66,3.93-5.51,5.87a1,1,0,0,1-.49.14c-1.91-1.22-4.13-1.81-6.1-2.92-.61-.34-.86-1-1.34-1.41v-1c2.34-3.77,4.7-7.52,7.38-11.06a131.8,131.8,0,0,1,10.23-12,2.15,2.15,0,0,0,.66-1.8c-.49-5.71-1-11.43-1.41-17.14s-.84-11.52-1.22-17.29c-.42-6.28-.83-12.56-1.18-18.85-.13-2.39-.08-4.79-.11-7.19a4.11,4.11,0,0,1-.07-1.31V76.88c0-2-.18-4-.27-6a38.57,38.57,0,0,1,.44-6.07c.49-4.32,1-8.64,1.61-12.94.4-2.76.81-5.52,1.45-8.24A21,21,0,0,0,18.36,41a16.42,16.42,0,0,1,.47-2.4,5.57,5.57,0,0,0,.53-2.9,2.3,2.3,0,0,1,.21-1.07.72.72,0,0,1,.25-.27c.64-.29.72-.93.85-1.49a52.37,52.37,0,0,1,2.09-6.23c.56-1.45,1.28-1.9,2.79-1.51,2,.52,4.1.66,5.88,1.85.73.06.52.73.73,1.12,0,8.24.16,16.46.44,24.69.16,4.71.18,9.43.32,14.14.22,7.06.49,14.13.74,21.19q.35,9.94.7,19.87c.36,9.47.59,18.93.77,28.4,0,2.5.1,5,.13,7.77l2-1.52c6.31-4.74,12.55-9.58,19.25-13.77a117.33,117.33,0,0,1,33.61-14.44c1.55-.39,3.08-.84,4.66-1.13.16.16.38.23.52.42a1.4,1.4,0,0,0,1.75.65,13.06,13.06,0,0,1,2.24-.21c.23,0,.39.22.6.28.66,0,1.44-.41,1.84.52l.27.67c.08.19.18.38.38.41a1.41,1.41,0,0,1,1.24,2.07,1.48,1.48,0,0,1-1.35,1.18c.39-.07.85-.12.93.34s.39,1.21-.14,1.58c-1.23.87-2.15,2.14-3.8,2.53-1.12.26-2.56.63-2.56,2.35,0,.44-.46.61-.7.93,0,.8-.82.56-1.21.87s-1,.33-1.27.78Z" transform="translate(0)"/>
  <path class="ebf85af2-bb55-44a0-8306-45226a244a46" d="M116.65,35.84c-.19.56-.72.56-1.16.68a8,8,0,0,0-2.35,1.32,2.2,2.2,0,0,1-1.32.46c-.11,0-.22.06-.34.08-2.81.45-3.31-.53-3.25-3.2a2.33,2.33,0,0,0,0-.59,1.17,1.17,0,0,1,0-.32,2.15,2.15,0,0,0,.21-1.22c.11-.73.7-1.1,1.17-1.56.12-.21.58-.2.39-.61-.14-.11-.27-.23-.14-.42l.29-.69c0-.75.83-1,.88-1.75A29.19,29.19,0,0,0,114,24.49c-.2-.33,0-.49.25-.66l0-.09c.1,0,.18-.13.29-.19l.21-.25c.21-.32-.15-.64,0-.95.64-.59,1.25-1.23,1.94-1.75.33-.25.64-1.1,1.34-.24.17.21.76-.37.81-.81a1.37,1.37,0,0,1,1.12-1.22c1.22-.34,1.15-1.53,1.64-2.4a4.06,4.06,0,0,0-1.89.87C106.35,24,93.12,31.4,80.75,40.22A70.28,70.28,0,0,0,67.38,52a9.53,9.53,0,0,0-1.52,2.67c-.3.77-.11,1.13.67,1.19a50.08,50.08,0,0,0,6.71,0,61.36,61.36,0,0,0,8.46-.59,47.57,47.57,0,0,1,6.19-.43c6.17-.37,12.35-.86,18.54-.78,5.57.08,11.18-.08,16.69,1a12.33,12.33,0,0,1,5.77,2.69c2.4,2,3.07,5.21,2.11,8.53-1.51,5.16-5.22,8.79-9,12.31-11.17,10.4-23.64,19-36.76,26.78A164,164,0,0,1,63,116.45a87.94,87.94,0,0,1-11.59,3.44,15.72,15.72,0,0,1-8.6-.42,2.91,2.91,0,0,1-2.3-2c-1.6-2.75-.66-5.17,2.47-6.33,1.46-.54,3-.59,4.52-1,1.34.28,2.31-.5,3.35-1.13,11.77-7.07,23.23-14.63,34.89-21.87,10.1-6.27,20.32-12.36,30.47-18.54,1.69-1,3.31-2.15,5.25-3.4a19,19,0,0,0-4.4.13c-3.27.13-6.54.28-9.8.47q-12.81.74-25.63.36c-5.59-.16-11.19-.67-16.52-2.6-2.07-.75-4.12-1.62-5.49-3.44-2.59-3.44-2.76-7.26-1.37-11.18,1.5-4.23,4.16-7.76,7-11.12,7.15-8.29,15.86-14.64,25.21-20.16A162.94,162.94,0,0,1,128,1.41,30,30,0,0,1,133.89.26c.36-.29.85.06,1.21-.24h2.64a.37.37,0,0,0,.2.11c3.21.27,4.87,2.06,5,5.33,0,.19,0,.4.12.56V6.5a10,10,0,0,0-.86,2.5,29.46,29.46,0,0,1-4.94,7.42c-2.45,2.93-5,5.77-7.46,8.71a8.07,8.07,0,0,1-2.59,2.48c-.3.64-.47,1.37-1.22,1.67-.32.13-.71.31-1-.05s0-.61.2-.86a4.38,4.38,0,0,0,1.14-2.18,1.2,1.2,0,0,0-.16-.27c-.3-.34-.34-1-1.11-.87,1,1,1,1.17.08,2.23-.41.46-.84.86-.46,1.56.26.48-.11.8-.41,1.14a24.08,24.08,0,0,0-2.35,2.69c-.41.85-1.48,1-1.9,1.88a.16.16,0,0,1,0,.25l-.45,0c-.53.12-1.08.2-1.61.35A1.57,1.57,0,0,0,116.65,35.84Z" transform="translate(0)"/>
  <path class="beaf955c-98c5-4cf6-a174-c421bd1814b9" d="M8.18,189.58a1.12,1.12,0,0,1,1.44,0Z" transform="translate(0)"/>
  <path class="beb9ca7c-d2e0-4a37-86e0-36089ba48299" d="M135.1,0c-.35.35-.8.21-1.21.24,0-.08,0-.16,0-.24Z" transform="translate(0)"/>
  <path class="a956e383-bd87-417b-85c2-5814b215a043" d="M18,43.45c-.53,3.22-1.14,6.43-1.58,9.67-.59,4.38-1.14,8.77-1.56,13.16-1,10.16-.31,20.34-.45,30.51,0,.32,0,.64-.08.95a5.87,5.87,0,0,1-.18-2c0-6.46.05-12.92,0-19.37a22.23,22.23,0,0,0-.55-4.59c-.41-.51-.21-1.17-.43-1.73q-.06-6.18-.13-12.36c0-.59,0-1.17-.62-1.48a.92.92,0,0,1-.2-1.14c1.05-.8.85-2,.87-3,0-2.15.33-4.32-.38-6.43.67-2.22-.09-4.49.2-6.73.31-.21.62.39.94,0v-.46a9,9,0,0,1-.09-2c0-.23-.08-.55.19-.63s.48.23.67.42l.92,0c.26-.19,0-.53.24-.75.41.08.56-.48,1-.42h0c.17.19.33.19.49,0h0a.36.36,0,0,1,.5,0l0,0c.61.47.64,1.2.83,1.86A25.87,25.87,0,0,1,18,43.45Z" transform="translate(0)"/>
  <path class="b41b7eba-7a2d-4b54-8578-e37d898a22b3" d="M31.43,27.14c-2-.51-3.91-1-5.87-1.53-1.59-.39-1.86-.23-2.38,1.27-.83,2.4-1.65,4.8-2.5,7.2-.1.28,0,1.1-.74.5a10.33,10.33,0,0,1,.07-3,8.73,8.73,0,0,0,.21-3.42c-.09-.5-.3-1.16.35-1.56a1,1,0,0,1,.24-1.51c.83-.44.68-1.09.69-1.75s-.17-1.18.37-1.62a.15.15,0,0,1,.21,0c.48.37.72,0,1-.32l1.21-1.65a.66.66,0,0,1,.2.27,1.88,1.88,0,0,1,.05.33.93.93,0,0,1,0-.33.77.77,0,0,1,.19-.28h0c.49-.12.28.36.45.52s.3.19.49.19c.5-.48,1,.23,1.47,0l.44.26c.41.18.54.58.71.94s.18.57.54.25.45.31.66.49a.72.72,0,0,0,.35.11c.13-.06.19-.19.27-.29s.22-.2.38-.1l0,.69c.24.37-.08.85.23,1.22.64,0,.45.48.49.82.08.68-.14,1.4.22,2.06.07.06.09.12.06.17S31.46,27.14,31.43,27.14Z" transform="translate(0)"/>
  <path class="f92d2403-a899-4e8a-ae04-2ce15a7d5175" d="M47.53,110.14c-.6.84-1.56.78-2.42,1a7.48,7.48,0,0,0-2.92.94c-2.19,1.53-2.46,2.46-1.65,5.41-.47-1-1.75-1.15-2.2-2.16-.21-.48-.21-.58.25-1.12.15-.19,0-.34-.05-.51s-.64-.51,0-.66a3.72,3.72,0,0,1,1.22-2,.43.43,0,0,0,.06-.64h0c.06-.42-.21-.84,0-1.27l0-.05,0-.06c-.07-.75.64-.56,1-.82,0-.2,0-.42.23-.5a.65.65,0,0,1,.31,0c.48,0,1,.93,1.42-.13a1.21,1.21,0,0,1,.21-.24c.25-.1.48-.59.77,0,.31.2.61.41.64.77a.51.51,0,0,1,.06-.69l0,0c.67,0,.77.52,1,1a.41.41,0,0,0,0,.22,15,15,0,0,1,1.34,1,1.68,1.68,0,0,1,.53.19Z" transform="translate(0)"/>
  <path class="f92d2403-a899-4e8a-ae04-2ce15a7d5175" d="M96,127c.12-.25.38-.53.33-.75-.19-1-.17-1.71,1-2.13.81-.29,1.41-1.17,2.46-.93.13,0,.39,0,.42-.1.38-1,1.61-1.12,2.19-1.93.19-.26,1.14-.31.1-.84-.49-.25.6-.26.36-.74-.56-.3-1,.45-1.71.3.61-.86,1.75-1,2.21-1.82a.35.35,0,0,1,.3-.13,2.57,2.57,0,0,1,.68,0s.08.07.07.1c-.46,1.36-.46,1.36,1.16,1.23a1.3,1.3,0,0,1-.71,1.14c-.49.36-1,.7-1.54,1.08.58.46,1-.18,1.4,0,.56.31-.26.69-.08,1.08-.39.1-.45.53-.76.71l-.29.22c-.53.29-1.09.49-1.63.74A55.27,55.27,0,0,0,96,127Z" transform="translate(0)"/>
  <path class="b843f352-6f6d-46f2-8388-4afca842d19e" d="M7.7,188.15a25.5,25.5,0,0,1,4.55-4.38c.55-.37.5-1.2,1.21-1.39-.07.24-.47.37-.22.7.1.15.38.22.2.48-.47.46-.19.66.26.84s.72,0,1.05.41a8.2,8.2,0,0,1-1.78.93,1.38,1.38,0,0,0-.22,1.24c.1.75-.29.7-.79.57,0,0-.09,0-.13,0a.42.42,0,0,1,.27.14.65.65,0,0,1-.37.78c-.89,0-1.76,0-2.65,0C8.6,188.46,8.08,188.58,7.7,188.15Z" transform="translate(0)"/>
  <path class="f92d2403-a899-4e8a-ae04-2ce15a7d5175" d="M121.91,32.67c.06-1.3,1.09-1.87,1.93-2.58.56-.47.93-.94.17-1.53-.37-.28-.26-.52,0-.78s.34-.33.5-.51a4.64,4.64,0,0,0,.93-1.07c.41-.85-1,.19-.71-.63.11-.37-.74-.11-.48-.6s.88-.45,1.38-.53.57.23.57.58a1.34,1.34,0,0,0,.49.92h0c.22.67-.18,1.2-.44,1.74a5.72,5.72,0,0,1-1.06,1.42c1,0,1.37-.92,2-1.49a8.86,8.86,0,0,1-.29,1.26c-.16.45-.22.91-1,.68s-1.9.82-2.22,2.17c-.11,0-.12.21-.27.19C122.63,31.7,122.4,32.43,121.91,32.67Z" transform="translate(0)"/>
  <path class="a2e917bc-edf9-4ad2-9291-f4a5ceb2e500" d="M21.84,23.51c0,.2.09.45,0,.58-.2.29.61,1.3-.6.89-.13.48-.56.8-.63,1.35-.19,1.45.45,3,0,4.32s-.26,2.65-.64,3.93l-.17,0c-.33-.32-.21-.67-.09-1,0-2.84.22-5.66.47-8.49.07-.85.6-.5,1-.59.24-.39.06-.82.12-1.23a.36.36,0,0,1,.12-.27C21.78,22.94,21.67,23.35,21.84,23.51Z" transform="translate(0)"/>
  <path class="bd2e7a24-3799-4972-85f6-16d312618268" d="M108.45,34.32c.19.42.58.81.09,1.28-.31.3-.24.55.18.7.19.07.41.23.35.42-.61,2,1.17,1,1.83,1.43.23.14.62,0,.93,0q.23.12,0,.24a1.37,1.37,0,0,1-1.19.53c-.64.29-1.06-.63-1.7-.32a.92.92,0,0,1-.71,0,8.64,8.64,0,0,1-.94-1.46c-1.51-.34,0-1.13-.24-1.66C107.45,35.05,107.48,34.15,108.45,34.32Z" transform="translate(0)"/>
  <path class="f37b66b2-744f-497e-b984-2eb576d22964" d="M12.77,45.6a2.26,2.26,0,0,1,.68,1.94,36,36,0,0,1-.14,5.09,4.36,4.36,0,0,0,0,1.65c.15.63-.26.74-.75.74L12.43,55c0-.25.1-.48.1-.73s.48-.49.46-1C12.88,50.71,12.83,48.16,12.77,45.6Z" transform="translate(0)"/>
  <path class="ed6fe28d-c99a-492c-bb16-162f3174904b" d="M99.86,114.69l-.5-.22a13.47,13.47,0,0,0-3.22-.35,1.69,1.69,0,0,1-1.11-.35l-.24-.47c1-.69,2-.22,3.08-.3.26-.1.53,0,.79,0,.78,0,.85.75,1.2,1.21A.41.41,0,0,1,99.86,114.69Z" transform="translate(0)"/>
  <path class="b29dff04-74b9-4cd7-9a51-c6a33688a15a" d="M19.21,38.65,18.73,41c-.57-.09-.33-.54-.34-.84-.07-1.27.09-2.54-.1-3.81.12-.48,0-1.07.49-1.41l.41.06.16.15A7.41,7.41,0,0,1,19.21,38.65Z" transform="translate(0)"/>
  <path class="e14f1b81-605f-4142-936c-765b26a12a52" d="M107.29,37.2a1.07,1.07,0,0,1,.94,1.46,1.14,1.14,0,0,0-1.17.63.53.53,0,0,1-.72.23c-.59-.24.09-.84-.31-1.23-.14-.14.26-.17.49-.14C107.28,38.26,107.37,37.79,107.29,37.2Z" transform="translate(0)"/>
  <path class="beb9ca7c-d2e0-4a37-86e0-36089ba48299" d="M111.83,38.42v-.24c.77-.16,1.2-.85,1.84-1.22a2.91,2.91,0,0,1,1.82-.44,21.64,21.64,0,0,0-1.77,1.39A1.89,1.89,0,0,1,111.83,38.42Z" transform="translate(0)"/>
  <path class="a307a1bb-a961-466e-916d-97e33198a065" d="M109.89,31.68c-.29.57-1,.79-1.21,1.43a1.06,1.06,0,0,1-.91.94.6.6,0,0,1-.46-.19c.11-1,1.24-1.38,1.49-2.3a.57.57,0,0,1,.37-.67.74.74,0,0,1,.33,0C109.85,31.06,110.06,31.27,109.89,31.68Z" transform="translate(0)"/>
  <path class="f33fff22-9378-4618-8071-96be318f2cfb" d="M27.6,181.69c.4-.36,1.06-1.09,1.16-1,.72.5.77-.56,1.25-.45a2.66,2.66,0,0,0-.28.65c-.1.75-.1,1.6-1.22.83l-.22.38c-.3.2-.48,0-.66-.2A.21.21,0,0,1,27.6,181.69Z" transform="translate(0)"/>
  <path class="b79aff0d-21ac-4830-a66a-20fbe0b2f47e" d="M23.33,181c0-.24,0-.77.1-.68.47.44,1.8-.27,1.54,1.1-.08.16-.16.16-.25,0-.46-.1-.64,0-.74.55-.14.68-.44.48-.64,0A2,2,0,0,0,23.33,181Z" transform="translate(0)"/>
  <path class="bb84b503-9ecb-411c-841c-c9ed6c18f829" d="M103.67,118.07h-.28c.08-.69.33-1.42-.81-1.52-.31,0-.55-.51-.57-.93.63.49,1.45.28,2.13.56a.13.13,0,0,1,.08.14s0,.07-.07.07c.18.59-.21,1-.48,1.44C103.83,117.91,103.83,118,103.67,118.07Z" transform="translate(0)"/>
  <path class="bc73ca3a-1f99-41f2-987d-5a03fabcba6e" d="M12,187.42c.2,0,.59.13.42-.38a.91.91,0,0,1,.52-1.3,14.52,14.52,0,0,0,.15,1.58c.08.28-.39.72-.61,1.08-.26.11-.52.19-.75-.07l.25-.67C11.86,187.57,11.86,187.49,12,187.42Z" transform="translate(0)"/>
  <path class="b44df728-6a30-4997-8f76-feb6a4c94fac" d="M93.28,130.16c-.2.56-.82.51-1.22.78-.17.11-.5.53-.74.12s0-.73.41-.9S92.75,129.42,93.28,130.16Z" transform="translate(0)"/>
  <path class="e6dd839c-f6f9-4843-8624-875f269b3f5d" d="M109.44,30.94l-.64.62c-.93.16-.56-.54-.47-.85s.44-.55.68-.83c.21.28.45.49.42.84q.09.08.06.15C109.48,30.92,109.46,30.94,109.44,30.94Z" transform="translate(0)"/>
  <path class="b517b07d-f3ff-4909-a5e4-d7b7198ef2d1" d="M107.31,33.86h.47c.32,0,.76-.13.66.48h0c-.62.23-.65,1.14-1.4,1.22C106.52,34.88,107.55,34.47,107.31,33.86Z" transform="translate(0)"/>
  <path class="f37b66b2-744f-497e-b984-2eb576d22964" d="M12.56,55l-.08,1.19c-.28,0-.33.25-.48.4l-.13.17,0-.2c-.34-.72-.49-1.39.41-1.82a.28.28,0,0,1,.24.19Z" transform="translate(0)"/>
  <path class="a956e383-bd87-417b-85c2-5814b215a043" d="M12,61.21v5.14h-.2V61.21C11.86,61.05,11.93,61.05,12,61.21Z" transform="translate(0)"/>
  <path class="b4c3bfa2-b212-4edb-bddf-52d4fe1a4113" d="M14.68,36.2c-.39-.19-.73-.36-.71.35s0,1.25-.06,1.87c-.46-1.22-.12-2.48-.15-3.75C13.8,35.35,14.66,35.51,14.68,36.2Z" transform="translate(0)"/>
  <path class="b2ea9b01-3644-40a6-b7a2-e4929ccbfaea" d="M39.86,110.39c.73.77-.58,1-.4,1.68-.56.06-.43.77-.88.94C38.45,111.87,39.34,111.22,39.86,110.39Z" transform="translate(0)"/>
  <path class="a6a59ba0-b12e-4f6f-b675-43b1da3188b6" d="M117.84,34.82a2.2,2.2,0,0,1,1.69,0c0,.36-.44.22-.55.46-.38.25-.68.83-1.26.34C117.39,35.31,117.45,35,117.84,34.82Z" transform="translate(0)"/>
  <path class="a956e383-bd87-417b-85c2-5814b215a043" d="M13.23,70.05a3.5,3.5,0,0,1,.43,1.73c-.4.54-.06,1.23-.43,1.79Z" transform="translate(0)"/>
  <path class="bfdd799e-789f-46f3-b8c3-ffcd84359692" d="M105.6,119.33c-.59.48-1.31,0-1.95.38a2.46,2.46,0,0,1,.72-1.61c.25-.11.33,0,.28.22C104.07,119.31,104.07,119.31,105.6,119.33Z" transform="translate(0)"/>
  <path class="a956e383-bd87-417b-85c2-5814b215a043" d="M12,61.21h-.2l0-4.63a.25.25,0,0,1,.17,0Z" transform="translate(0)"/>
  <path class="a8f5d228-4823-4ff7-8e6c-9fb4c0b922b1" d="M11.51,44.14a12.49,12.49,0,0,1-.16-1.37.46.46,0,0,1,.44-.47.5.5,0,0,1,.4.15.37.37,0,0,1-.14.51c-.44.33-.25.79-.26,1.2A.2.2,0,0,1,11.51,44.14Z" transform="translate(0)"/>
  <path class="bf660337-7b24-4e48-8616-66c468bcf956" d="M21.17,23.1V19.59c.22.66.19,1.38.44,2-.06.48.17,1-.25,1.42h0C21.33,23.15,21.27,23.18,21.17,23.1Z" transform="translate(0)"/>
  <path class="a956e383-bd87-417b-85c2-5814b215a043" d="M11.51,44.14l.28,0a1.48,1.48,0,0,1-.1,1.54A1.43,1.43,0,0,1,11.51,44.14Z" transform="translate(0)"/>
  <path class="ebf85af2-bb55-44a0-8306-45226a244a46" d="M117.84,34.82a.63.63,0,0,0,0,.72c0,.23,0,.39-.31.27l-.88,0A.94.94,0,0,1,117.84,34.82Z" transform="translate(0)"/>
  <path class="f6805c0c-c9d3-44a8-984e-1c85f63302d8" d="M111.06,28c.19.24.41.4,0,.69a4.5,4.5,0,0,0-.85,1.06c-.37-.41-.43-.71.18-1C110.65,28.66,110.83,28.29,111.06,28Z" transform="translate(0)"/>
  <path class="f1fa3c1b-9907-4f8f-92e4-8806cd360e9d" d="M46.56,109.93l-1.19-1.47c.78-.19,1,.83,1.67.8C47,109.56,47.09,110,46.56,109.93Z" transform="translate(0)"/>
  <path class="b2ea9b01-3644-40a6-b7a2-e4929ccbfaea" d="M40.79,108.19c-.07.58-.63.57-1,.82-.15-.38-.27-.78.08-1.1S40.43,108.27,40.79,108.19Z" transform="translate(0)"/>
  <path class="ae533cce-17d0-4397-af55-2cf75ddcc0c5" d="M108.94,38.63c.68-.48,1.2-.12,1.7.32a.56.56,0,0,1-.5.64c-.27,0-.22-.25-.27-.41s-.39-.08-.49-.28S109.08,38.73,108.94,38.63Z" transform="translate(0)"/>
  <path class="beaf955c-98c5-4cf6-a174-c421bd1814b9" d="M11.76,188.33l.75.07a4,4,0,0,1-1.9.23,1.87,1.87,0,0,1-1.1,0,.64.64,0,0,1-.43-.2.28.28,0,0,1,.06-.3A20.87,20.87,0,0,1,11.76,188.33Z" transform="translate(0)"/>
  <path class="b9cda1bb-4958-430b-b1d1-1a0b9bc16e5e" d="M114.73,22.35c.27.35.69.25,1.11.27a1.17,1.17,0,0,1-1.12.68C114,23,114.4,22.66,114.73,22.35Z" transform="translate(0)"/>
  <path class="b77ad44a-d39f-4ef8-81bf-54d04515c647" d="M99.86,114.69v-.5l1.4,0c.32-.09.7-.33.76.28l-.28.45C101.13,114.76,100.56,114.29,99.86,114.69Z" transform="translate(0)"/>
  <path class="bef3dc23-c14e-4052-92ae-a2e7df3f06ca" d="M31.43,27.14l0-.25c.42-.12.13-.69.7-.91V28.1C32,27.74,31.93,27.27,31.43,27.14Z" transform="translate(0)"/>
  <path class="b5393fa3-d340-42f0-b524-5f86605cb269" d="M13.9,77.28c0,.37.07.72-.37.67s-.29-.4-.3-.65,0-.65.37-.6S13.94,77.09,13.9,77.28Z" transform="translate(0)"/>
  <path class="be7e86cd-2c7e-4e7c-afdd-b41f62c1cdb3" d="M24.72,181.43H25l.07.47a1.44,1.44,0,0,1,.18,1.21c-.21.27-.13.7-.68,1C24.47,183.14,25,182.28,24.72,181.43Z" transform="translate(0)"/>
  <path class="a4be4b6f-bc5e-4630-a0b3-55a3a70a9162" d="M24.73,19.69v1.87c-.73-.58-.41-1.26-.48-1.86Z" transform="translate(0)"/>
  <path class="f696e07a-1128-41dd-aec4-033a4b3070a3" d="M43,107.27c0,.07,0,.14,0,.22-.31.62-.73.7-1.27.25-.21-.28.07-.63-.12-.92,0-.15.08-.41.18-.29a3.5,3.5,0,0,1,.42.87C42.49,107.61,42.5,106.17,43,107.27Z" transform="translate(0)"/>
  <path class="f33fff22-9378-4618-8071-96be318f2cfb" d="M34.12,173.62a2.42,2.42,0,0,1-.07,2.16c-.36-.46-.13-.9-.22-1.29A.81.81,0,0,1,34.12,173.62Z" transform="translate(0)"/>
  <path class="b3d5e8da-9a95-4f9c-bb98-375fd2bf734f" d="M21.36,23a2.49,2.49,0,0,1,.25-1.42l.26.06,0,1.83Z" transform="translate(0)"/>
  <path class="a99e5388-48a8-4568-b84f-0a51d04df21d" d="M25.66,182.11c.29-1,.77-1.23,1.54-.41-.05.14-.21.38-.27.29-.49-.8-.71-.17-1,.17a.16.16,0,0,1-.21.06Z" transform="translate(0)"/>
  <path class="a366685e-86d1-4b5a-86a2-939b2c1a12f2" d="M9.57,188.45l1,.18a4.2,4.2,0,0,1-2.38.17c-.28-.2-.18-.35,0-.5C8.72,188.29,9.12,188.58,9.57,188.45Z" transform="translate(0)"/>
  <path class="a51fea8a-b975-4e15-aeb3-f79a84464881" d="M34.12,173.62l-.29.87-.2,0c0-.57-.16-1.16.18-1.69A.9.9,0,0,1,34.12,173.62Z" transform="translate(0)"/>
  <path class="f2ab4b7b-1fdf-43f4-98f1-45a4fb7a0a36" d="M15.87,35.58c0,.24,0,.53-.27.65,0-.3,0-.61-.06-.91s-.87-.39-.24-.72.46.37.56.69C16,35.38,16,35.48,15.87,35.58Z" transform="translate(0)"/>
  <path class="b2ea9b01-3644-40a6-b7a2-e4929ccbfaea" d="M18.78,35c-.09.43.06.91-.28,1.29a.49.49,0,0,1-.37-.39,1.13,1.13,0,0,1,.12-1.08C18.57,34.41,18.74,34.51,18.78,35Z" transform="translate(0)"/>
  <path class="a3a363e9-2968-4888-a763-11f82fe78e5e" d="M45.37,108.24c-.53-.12-.54-.76-1-1l.09-.44C44.8,107.28,45.71,107.37,45.37,108.24Z" transform="translate(0)"/>
  <path class="af7433fa-12d5-491b-9e2f-4b6b86a73243" d="M15.87,35.58v-.29c.84-.1.22-.9.62-1.23.48.2.29.64.33,1C16.53,35.3,16.34,35.69,15.87,35.58Z" transform="translate(0)"/>
  <path class="a99e5388-48a8-4568-b84f-0a51d04df21d" d="M25.22,183.1a2,2,0,0,1-.18-1.21l.62.22.12.1a.75.75,0,0,1-.32.91l-.12,0Z" transform="translate(0)"/>
  <path class="a94ad002-c163-4b9a-afc6-4356b4b3d011" d="M28.29,21.64c-.53-.09-.91-.3-.71-.94C28.59,20.44,28.24,21.19,28.29,21.64Z" transform="translate(0)"/>
  <path class="e9a30c00-0643-4661-8072-12bfb7ae5cdc" d="M29.49,22.38c-.4.08-.46-.31-.66-.49-.07-.51.66-.42.66-.88Z" transform="translate(0)"/>
  <path class="b29dff04-74b9-4cd7-9a51-c6a33688a15a" d="M19.68,33.58l.09,1-.06,1.17c0,.46-.23.31-.34.07s0-.46-.08-.68l-.1-.13Z" transform="translate(0)"/>
  <path class="acaa188f-f105-4e42-a438-509622dfa7d9" d="M18.25,34.79l0,1.24a.53.53,0,0,1,0,.69,4.28,4.28,0,0,1-.46-1.64Z" transform="translate(0)"/>
  <path class="f2a380a8-88fe-4a24-bfe5-c48717ecc5bc" d="M8.46,188.42c-.21.05-.22.22-.23.38l-.77-.41.24-.24,1.44,0v.23C8.94,188.58,8.7,188.5,8.46,188.42Z" transform="translate(0)"/>
  <path class="bf660337-7b24-4e48-8616-66c468bcf956" d="M18.71,31.47v2.36h-.18V31.47l.09-.16Z" transform="translate(0)"/>
  <path class="a366685e-86d1-4b5a-86a2-939b2c1a12f2" d="M22.34,180.45c.37.25,0,1,.74,1,.06.06.08.1.05.14s-.05.05-.08.05l-.42.53A2.4,2.4,0,0,1,22.34,180.45Z" transform="translate(0)"/>
  <path class="b29dff04-74b9-4cd7-9a51-c6a33688a15a" d="M23,21.35l-.27,1.22-.69-.9.22-.11a1.12,1.12,0,0,1,.28-.18Z" transform="translate(0)"/>
  <path class="b44df728-6a30-4997-8f76-feb6a4c94fac" d="M27.14,20.44c-.5.41-1-.13-1.47,0l.06-.42c.32-.38.5,0,.72.13Z" transform="translate(0)"/>
  <path class="b41b7eba-7a2d-4b54-8578-e37d898a22b3" d="M114.24,23.83l-.25.66-.21,0a.38.38,0,0,1-.61-.17.36.36,0,0,1,.09-.34l0,0c.13-.34.35-.49.7-.29Z" transform="translate(0)"/>
  <path class="e9a30c00-0643-4661-8072-12bfb7ae5cdc" d="M25.18,20.21c-.19-.14-.11-.52-.45-.52v-1.3h.17Z" transform="translate(0)"/>
  <path class="a10931a7-ade7-4e23-aae2-b64beb25e7c2" d="M13.91,38.88c-.32.52-.63-.1-.94,0v-1.1C13.3,38.36,13.37,38.87,13.91,38.88Z" transform="translate(0)"/>
  <path class="a956d422-340b-41d0-a829-3ba0276c8bfc" d="M117.53,35.81l.31-.27c.46.28.73-.28,1.14-.25C118.6,35.74,118.26,36.33,117.53,35.81Z" transform="translate(0)"/>
  <path class="b5252c56-d7c7-4e76-8f54-b9b66fb3c315" d="M17.3,35.05v1.14c-.54-.31-.47-.74-.49-1.13Z" transform="translate(0)"/>
  <path class="a39b3fed-1802-43e6-903e-d8467708dfe1" d="M102,124.32a2.38,2.38,0,0,1,1.63-.74C103.11,123.9,102.66,124.36,102,124.32Z" transform="translate(0)"/>
  <path class="b2ea9b01-3644-40a6-b7a2-e4929ccbfaea" d="M39.81,109.12c-.07.43.95.82,0,1.27C39.43,110,39.59,109.55,39.81,109.12Z" transform="translate(0)"/>
  <path class="abed88fb-1804-444d-90a8-835c09504857" d="M109.38,38.9c.19.05.4.05.49.28-.32.07-.56.38-.94.31C109,39.18,109.17,39,109.38,38.9Z" transform="translate(0)"/>
  <path class="a8f5d228-4823-4ff7-8e6c-9fb4c0b922b1" d="M11.15,39.74c.3.06.52.22.49.54a.25.25,0,0,1-.36.19C11,40.29,11,40,11.15,39.74Z" transform="translate(0)"/>
  <path class="a17a5992-e606-4413-bac6-fecf19e1afe6" d="M11.77,49.47c-.34-.27-.27-.58-.08-.92.53.14.25.54.28.84S11.9,49.59,11.77,49.47Z" transform="translate(0)"/>
  <path class="b5393fa3-d340-42f0-b524-5f86605cb269" d="M11.78,51.37a.9.9,0,0,1,.23,0,.64.64,0,0,1,0,.92c-.06.18-.14.18-.21,0A.66.66,0,0,1,11.78,51.37Z" transform="translate(0)"/>
  <path class="f40d2ba0-1fa1-47db-8af7-45a42aa35056" d="M93.53,128.67c.34,0,.72-.15.78.37,0,.08-.09.25-.15.26-.54.1-.45-.4-.61-.66Z" transform="translate(0)"/>
  <path class="e557a168-78c1-41ec-8d56-ebedc38f6767" d="M13.44,183.56l-.2-.48,1.15,0,0,.16Z" transform="translate(0)"/>
  <path class="be7e86cd-2c7e-4e7c-afdd-b41f62c1cdb3" d="M25.46,183.12a1.13,1.13,0,0,0,.32-.91l.16-.05a1.9,1.9,0,0,1-.23,1.23c0,.11-.12.2-.21.07S25.47,183.23,25.46,183.12Z" transform="translate(0)"/>
  <path class="f33fff22-9378-4618-8071-96be318f2cfb" d="M27.63,181.88l.66.2-.66.85Z" transform="translate(0)"/>
  <path class="e7808f4e-71d6-473c-940e-6448763ceb43" d="M113.72,39.18a.68.68,0,0,1-.53.75.39.39,0,0,1-.15-.22C113,39.31,113.33,39.25,113.72,39.18Z" transform="translate(0)"/>
  <path class="a4d7d941-9f69-4078-8ce9-2565c30788dc" d="M30.49,22.1l-.28.2c-.08.17-.21.17-.36.12l-.1-.11a4.53,4.53,0,0,0,.69-1.12Z" transform="translate(0)"/>
  <path class="acd60f05-8c6e-4d97-ba3d-d6e42ab10298" d="M38.56,108a.61.61,0,0,1,.26.85s-.25.09-.28,0A.75.75,0,0,1,38.56,108Z" transform="translate(0)"/>
  <path class="b25e5d7a-a5d4-4408-956f-9f5164a93338" d="M46.56,109.93l.48-.67c.3,0,.22.25.2.43C46.86,110.33,46.86,110.33,46.56,109.93Z" transform="translate(0)"/>
  <path class="a0afc4af-3796-47cf-8aff-9d2ba0b0e3e0" d="M120,34.8l0-.25c.16,0,.32,0,.47,0s.28-.17.45.06C120.7,35,120.45,35.25,120,34.8Z" transform="translate(0)"/>
  <path class="e2113909-dc80-4342-8d02-ec08e3b0e3e5" d="M98.66,113c-.25.43-.52.2-.79,0,.23-.12.46-.25.7-.35.07,0,.18,0,.28.06Z" transform="translate(0)"/>
  <path class="b3e7cb67-75f5-4c12-af58-940fa58a7adf" d="M18.92,27.27v1.45A1.56,1.56,0,0,1,18.92,27.27Z" transform="translate(0)"/>
  <path class="f90f3708-f6c5-426a-9d9e-58e232586d07" d="M21.86,180.46c0-.34.19-.56.49-1.15v1.14Z" transform="translate(0)"/>
  <path class="af65e101-2a70-49e0-b6af-f64d2342fc42" d="M26.45,20.11c-.23-.07-.44-.28-.72-.13l.3-.93Z" transform="translate(0)"/>
  <path class="b99d3c59-fcf7-4ef5-95d3-5a7fbe8a527b" d="M17.8,35l-.5,0,0-.79C17.73,34.43,17.73,34.75,17.8,35Z" transform="translate(0)"/>
  <path class="a39b3fed-1802-43e6-903e-d8467708dfe1" d="M103.91,123.36c.11-.39.16-.85.76-.71C104.52,123,104.38,123.36,103.91,123.36Z" transform="translate(0)"/>
  <path class="b95bebc7-8e37-46a1-85f1-f612027d9206" d="M102,114.51c-.18-.3-.49-.24-.76-.28a.64.64,0,0,1,.95,0C102.51,114.46,102.18,114.46,102,114.51Z" transform="translate(0)"/>
  <path class="b3d5e8da-9a95-4f9c-bb98-375fd2bf734f" d="M21.17,23.1a.7.7,0,0,1,.19-.06c0,.5.22,1-.22,1.46Z" transform="translate(0)"/>
  <path class="b99d3c59-fcf7-4ef5-95d3-5a7fbe8a527b" d="M104.65,118.32l-.28-.22-.7,0v-.23C104,118.06,104.77,117.27,104.65,118.32Z" transform="translate(0)"/>
  <path class="f33fff22-9378-4618-8071-96be318f2cfb" d="M31,179.54l.47-.07a1.06,1.06,0,0,1-.31.77C30.88,180,31,179.78,31,179.54Z" transform="translate(0)"/>
  <path class="ba2d41be-179d-4932-b55b-206abae6597d" d="M18.71,31.47h-.18V30.15A2.11,2.11,0,0,1,18.71,31.47Z" transform="translate(0)"/>
  <path class="aa1ed879-6590-4fbc-a0a9-890d04fe508d" d="M109.44,30.94a1.7,1.7,0,0,0,0-.22l.46-.26.5.27c-.22.68-.22.68-.94.24Z" transform="translate(0)"/>
  <path class="b9d63075-05f1-4471-8f94-bd5b6a896fbd" d="M44.43,107.3c0,.25.09.52-.13.75l-.57-.83Z" transform="translate(0)"/>
  <path class="ba1485f4-8f3e-453f-afb3-d9688f9f2ab3" d="M41.56,106.82a.88.88,0,0,1,.18.75c-.1.18-.22.32-.46.24l-.26-.12C41.28,107.45,41.57,107.23,41.56,106.82Z" transform="translate(0)"/>
  <path class="b517b07d-f3ff-4909-a5e4-d7b7198ef2d1" d="M112.81,24.74l.43-.51a.67.67,0,0,0,.54.29C113.48,24.69,113.26,25.2,112.81,24.74Z" transform="translate(0)"/>
  <path class="bf099656-d586-494d-893f-8894f2fb5059" d="M123.35,31.91a.21.21,0,0,1,.27-.19c-.21.26.37.57-.05.81a.23.23,0,0,1-.2,0C123.11,32.34,123.26,32.13,123.35,31.91Z" transform="translate(0)"/>
  <path class="a956e383-bd87-417b-85c2-5814b215a043" d="M12.14,69.87a1.11,1.11,0,0,1,0-.94A1,1,0,0,1,12.14,69.87Z" transform="translate(0)"/>
  <path class="aee85ed9-86be-4a8e-b271-bd26137a9b60" d="M114,23.75l-.7.29c0-.25,0-.49.28-.57S113.94,23.55,114,23.75Z" transform="translate(0)"/>
  <path class="f1c9d570-1fe4-453c-9203-9104422f7406" d="M30.75,24c-.48-.34-.3-.79-.23-1.22Z" transform="translate(0)"/>
  <path class="f6e0c29b-cb37-4a63-aef7-156f247f8f07" d="M104.15,116.4a.22.22,0,0,1,0-.21c.12-.27.4-.39.52-.15S104.39,116.35,104.15,116.4Z" transform="translate(0)"/>
  <path class="ac1a0a12-a3a9-467f-a4d9-dab238ff61fb" d="M29.75,23.52c-.46-.29-.26-.74-.26-1.14l.26-.07.08.09A1.2,1.2,0,0,1,29.75,23.52Z" transform="translate(0)"/>
  <path class="b79aff0d-21ac-4830-a66a-20fbe0b2f47e" d="M23.05,181.65a.58.58,0,0,0,0-.19l.25-.46c.3.32.36.63,0,.95Z" transform="translate(0)"/>
  <path class="ed10937d-1b9c-4895-be90-612886c260f6" d="M22.58,21.38l-.28.18.06-.83C22.71,20.89,22.54,21.17,22.58,21.38Z" transform="translate(0)"/>
  <path class="b5ce7a7f-2c7a-4c54-a668-526f79613cfd" d="M18.85,25.5a.47.47,0,0,1,0,.64A.48.48,0,0,1,18.85,25.5Z" transform="translate(0)"/>
  <path class="b86e789f-32f5-465e-96a6-704d6074802c" d="M114.51,23.55c-.05.14-.12.25-.29.19Z" transform="translate(0)"/>
  <path class="b41b7eba-7a2d-4b54-8578-e37d898a22b3" d="M95,113.77a5.92,5.92,0,0,1,4.33.7c-1.09-.16-2.06.45-3.19.41S95.23,114.32,95,113.77Z" transform="translate(0)"/>
  <path class="a2e917bc-edf9-4ad2-9291-f4a5ceb2e500" d="M18.23,36.72c0-.23,0-.46,0-.69l.23.23c.12,1.59-.27,3.2.23,4.77A12,12,0,0,1,18,43.45C18,41.21,18.44,39,18.23,36.72Z" transform="translate(0)"/>
  <path class="a2e917bc-edf9-4ad2-9291-f4a5ceb2e500" d="M19.29,35.16c.29.1,0,.63.42.61a4.37,4.37,0,0,1-.5,2.88C19.24,37.49,19.26,36.32,19.29,35.16Z" transform="translate(0)"/>
  <path class="af5f5c89-b147-414e-a7fe-57290ec81c4e" d="M114.24,26.26a4.15,4.15,0,0,1,1.66-1.61A4.28,4.28,0,0,1,114.24,26.26Z" transform="translate(0)"/>
  <path class="e3132057-5d57-45ca-b449-bac17b50def5" d="M108.44,34.33l-.66-.48.9-.74C109.29,33.65,108.79,34,108.44,34.33Z" transform="translate(0)"/>
  <path class="abfe38f9-217c-4d90-b428-cc9faa575989" d="M111.36,29.31l1.39-1.58c-.06.82-.57,1.15-.93,1.57A.31.31,0,0,1,111.36,29.31Z" transform="translate(0)"/>
  <path class="be81ad3d-0bc5-4dc3-9a4a-f68ee1c1937a" d="M111.36,29.31h.46c0,.34.06.74-.43.81-.12,0-.27-.07-.41-.11Z" transform="translate(0)"/>
  <path class="aad7bf84-e4b4-4c7f-bf1f-377543bdd64c" d="M109.45,31c.34.05.73.26.94-.24.5.67-.27.67-.5.95C109.75,31.44,109.6,31.2,109.45,31Z" transform="translate(0)"/>
  <path class="a6f9eb3e-10eb-454e-b83a-600a3af6a988" d="M122.26,15.46c.29,0,.39.09.34.25a.47.47,0,0,1-.46.31c-.2,0-.35-.13-.28-.27S122.16,15.53,122.26,15.46Z" transform="translate(0)"/>
  <path class="f1c9d570-1fe4-453c-9203-9104422f7406" d="M29.75,23.52l.08-1.12.38-.1C30.14,22.74,30.18,23.21,29.75,23.52Z" transform="translate(0)"/>
  <path class="a2e917bc-edf9-4ad2-9291-f4a5ceb2e500" d="M20.54,33.09a.48.48,0,0,1,0-.64A.48.48,0,0,1,20.54,33.09Z" transform="translate(0)"/>
  <path class="bbc7707c-41fe-4542-a083-610aa51ecb9e" d="M41.28,107.81l.46-.24c.44.5.83.2,1.21-.08.09.54-.32.84-.63,1.26Z" transform="translate(0)"/>
  <path class="a39b3fed-1802-43e6-903e-d8467708dfe1" d="M103.2,122.67c.1.09.23.16.24.23s-.17.2-.32.2-.24-.08-.18-.22S103.1,122.75,103.2,122.67Z" transform="translate(0)"/>
  <path class="ea106deb-20f8-4bb7-a016-d25f02526374" d="M12,187.42l0,.24c-.37,0-.76.1-1.13-.13C11.26,187.32,11.65,187.46,12,187.42Z" transform="translate(0)"/>
  <path class="ebf85af2-bb55-44a0-8306-45226a244a46" d="M126.7,25.94l-.61.69c0-.59.32-.64.61-.69Z" transform="translate(0)"/>
  <path class="b41d5024-0337-4d04-afd0-74865dddd75e" d="M8.46,188.42l.68-.07.43.1A.87.87,0,0,1,8.46,188.42Z" transform="translate(0)"/>
  <rect class="ae7cec25-575e-4f4b-80cc-7fa2a43cf1f6" width="143.04" height="189.6"/>
</svg>
